<svg xmlns="http://www.w3.org/2000/svg" version="1.1" viewBox="-5.0 -10.0 110.0 135.0">
 <g>
  <path d="m49.32 62.02-4.4805 4.6289v23.84l4.4609 4.9492h44.82v-33.422h-44.801zm42.871 31.492h-42.031l-3.3906-3.7617v-22.32l3.3711-3.4805h42.051z"/>
  <path d="m47.602 68.07h1.4492v21.32h-1.4492z"/>
  <path d="m51.82 67.289c0.76953 0 1.3984-0.62891 1.3984-1.3984s-0.62891-1.3984-1.3984-1.3984c-0.76953 0-1.3984 0.62891-1.3984 1.3984s0.62891 1.3984 1.3984 1.3984zm0-2.3086c0.5 0 0.91016 0.41016 0.91016 0.91016s-0.41016 0.91016-0.91016 0.91016-0.91016-0.41016-0.91016-0.91016 0.41016-0.91016 0.91016-0.91016z"/>
  <path d="m55.309 67.289c0.76953 0 1.3984-0.62891 1.3984-1.3984s-0.62891-1.3984-1.3984-1.3984c-0.76953 0-1.3984 0.62891-1.3984 1.3984s0.62891 1.3984 1.3984 1.3984zm0-2.3086c0.5 0 0.91016 0.41016 0.91016 0.91016s-0.41016 0.91016-0.91016 0.91016-0.91016-0.41016-0.91016-0.91016 0.41016-0.91016 0.91016-0.91016z"/>
  <path d="m58.809 67.289c0.76953 0 1.3984-0.62891 1.3984-1.3984s-0.62891-1.3984-1.3984-1.3984c-0.76953 0-1.3984 0.62891-1.3984 1.3984s0.62891 1.3984 1.3984 1.3984zm0-2.3086c0.5 0 0.91016 0.41016 0.91016 0.91016s-0.41016 0.91016-0.91016 0.91016-0.91016-0.41016-0.91016-0.91016 0.41016-0.91016 0.91016-0.91016z"/>
  <path d="m62.301 67.289c0.76953 0 1.3984-0.62891 1.3984-1.3984s-0.62891-1.3984-1.3984-1.3984-1.3984 0.62891-1.3984 1.3984 0.62891 1.3984 1.3984 1.3984zm0-2.3086c0.5 0 0.91016 0.41016 0.91016 0.91016s-0.41016 0.91016-0.91016 0.91016-0.91016-0.41016-0.91016-0.91016 0.41016-0.91016 0.91016-0.91016z"/>
  <path d="m65.789 67.289c0.76953 0 1.3984-0.62891 1.3984-1.3984s-0.62891-1.3984-1.3984-1.3984c-0.76953 0-1.3984 0.62891-1.3984 1.3984s0.62891 1.3984 1.3984 1.3984zm0-2.3086c0.5 0 0.91016 0.41016 0.91016 0.91016s-0.41016 0.91016-0.91016 0.91016-0.91016-0.41016-0.91016-0.91016 0.41016-0.91016 0.91016-0.91016z"/>
  <path d="m69.281 67.289c0.76953 0 1.3984-0.62891 1.3984-1.3984s-0.62891-1.3984-1.3984-1.3984-1.3984 0.62891-1.3984 1.3984 0.62891 1.3984 1.3984 1.3984zm0-2.3086c0.5 0 0.91016 0.41016 0.91016 0.91016s-0.41016 0.91016-0.91016 0.91016-0.91016-0.41016-0.91016-0.91016 0.41016-0.91016 0.91016-0.91016z"/>
  <path d="m72.77 67.289c0.76953 0 1.3984-0.62891 1.3984-1.3984s-0.62891-1.3984-1.3984-1.3984-1.3984 0.62891-1.3984 1.3984 0.62891 1.3984 1.3984 1.3984zm0-2.3086c0.5 0 0.91016 0.41016 0.91016 0.91016s-0.41016 0.91016-0.91016 0.91016-0.91016-0.41016-0.91016-0.91016 0.41016-0.91016 0.91016-0.91016z"/>
  <path d="m76.262 67.289c0.76953 0 1.3984-0.62891 1.3984-1.3984s-0.62891-1.3984-1.3984-1.3984-1.3984 0.62891-1.3984 1.3984 0.62891 1.3984 1.3984 1.3984zm0-2.3086c0.5 0 0.91016 0.41016 0.91016 0.91016s-0.41016 0.91016-0.91016 0.91016-0.91016-0.41016-0.91016-0.91016 0.41016-0.91016 0.91016-0.91016z"/>
  <path d="m79.75 67.289c0.76953 0 1.3984-0.62891 1.3984-1.3984s-0.62891-1.3984-1.3984-1.3984-1.3984 0.62891-1.3984 1.3984 0.62891 1.3984 1.3984 1.3984zm0-2.3086c0.5 0 0.91016 0.41016 0.91016 0.91016s-0.41016 0.91016-0.91016 0.91016-0.91016-0.41016-0.91016-0.91016 0.41016-0.91016 0.91016-0.91016z"/>
  <path d="m83.238 67.289c0.76953 0 1.3984-0.62891 1.3984-1.3984s-0.62891-1.3984-1.3984-1.3984-1.3984 0.62891-1.3984 1.3984 0.62891 1.3984 1.3984 1.3984zm0-2.3086c0.5 0 0.91016 0.41016 0.91016 0.91016s-0.41016 0.91016-0.91016 0.91016-0.91016-0.41016-0.91016-0.91016 0.41016-0.91016 0.91016-0.91016z"/>
  <path d="m86.738 67.289c0.76953 0 1.3984-0.62891 1.3984-1.3984s-0.62891-1.3984-1.3984-1.3984-1.3984 0.62891-1.3984 1.3984 0.62891 1.3984 1.3984 1.3984zm0-2.3086c0.5 0 0.91016 0.41016 0.91016 0.91016s-0.41016 0.91016-0.91016 0.91016-0.91016-0.41016-0.91016-0.91016 0.41016-0.91016 0.91016-0.91016z"/>
  <path d="m90.23 67.289c0.76953 0 1.3984-0.62891 1.3984-1.3984s-0.62891-1.3984-1.3984-1.3984-1.3984 0.62891-1.3984 1.3984 0.62891 1.3984 1.3984 1.3984zm0-2.3086c0.5 0 0.91016 0.41016 0.91016 0.91016s-0.41016 0.91016-0.91016 0.91016-0.91016-0.41016-0.91016-0.91016 0.41016-0.91016 0.91016-0.91016z"/>
  <path d="m51.82 70.961c0.76953 0 1.3984-0.62891 1.3984-1.3984s-0.62891-1.3984-1.3984-1.3984c-0.76953 0-1.3984 0.62891-1.3984 1.3984s0.62891 1.3984 1.3984 1.3984zm0-2.3125c0.5 0 0.91016 0.41016 0.91016 0.91016s-0.41016 0.91016-0.91016 0.91016-0.91016-0.41016-0.91016-0.91016 0.41016-0.91016 0.91016-0.91016z"/>
  <path d="m55.309 70.961c0.76953 0 1.3984-0.62891 1.3984-1.3984s-0.62891-1.3984-1.3984-1.3984c-0.76953 0-1.3984 0.62891-1.3984 1.3984s0.62891 1.3984 1.3984 1.3984zm0-2.3125c0.5 0 0.91016 0.41016 0.91016 0.91016s-0.41016 0.91016-0.91016 0.91016-0.91016-0.41016-0.91016-0.91016 0.41016-0.91016 0.91016-0.91016z"/>
  <path d="m58.809 70.961c0.76953 0 1.3984-0.62891 1.3984-1.3984s-0.62891-1.3984-1.3984-1.3984c-0.76953 0-1.3984 0.62891-1.3984 1.3984s0.62891 1.3984 1.3984 1.3984zm0-2.3125c0.5 0 0.91016 0.41016 0.91016 0.91016s-0.41016 0.91016-0.91016 0.91016-0.91016-0.41016-0.91016-0.91016 0.41016-0.91016 0.91016-0.91016z"/>
  <path d="m62.301 70.961c0.76953 0 1.3984-0.62891 1.3984-1.3984s-0.62891-1.3984-1.3984-1.3984-1.3984 0.62891-1.3984 1.3984 0.62891 1.3984 1.3984 1.3984zm0-2.3125c0.5 0 0.91016 0.41016 0.91016 0.91016s-0.41016 0.91016-0.91016 0.91016-0.91016-0.41016-0.91016-0.91016 0.41016-0.91016 0.91016-0.91016z"/>
  <path d="m65.789 70.961c0.76953 0 1.3984-0.62891 1.3984-1.3984s-0.62891-1.3984-1.3984-1.3984c-0.76953 0-1.3984 0.62891-1.3984 1.3984s0.62891 1.3984 1.3984 1.3984zm0-2.3125c0.5 0 0.91016 0.41016 0.91016 0.91016s-0.41016 0.91016-0.91016 0.91016-0.91016-0.41016-0.91016-0.91016 0.41016-0.91016 0.91016-0.91016z"/>
  <path d="m69.281 70.961c0.76953 0 1.3984-0.62891 1.3984-1.3984s-0.62891-1.3984-1.3984-1.3984-1.3984 0.62891-1.3984 1.3984 0.62891 1.3984 1.3984 1.3984zm0-2.3125c0.5 0 0.91016 0.41016 0.91016 0.91016s-0.41016 0.91016-0.91016 0.91016-0.91016-0.41016-0.91016-0.91016 0.41016-0.91016 0.91016-0.91016z"/>
  <path d="m72.77 70.961c0.76953 0 1.3984-0.62891 1.3984-1.3984s-0.62891-1.3984-1.3984-1.3984-1.3984 0.62891-1.3984 1.3984 0.62891 1.3984 1.3984 1.3984zm0-2.3125c0.5 0 0.91016 0.41016 0.91016 0.91016s-0.41016 0.91016-0.91016 0.91016-0.91016-0.41016-0.91016-0.91016 0.41016-0.91016 0.91016-0.91016z"/>
  <path d="m76.262 70.961c0.76953 0 1.3984-0.62891 1.3984-1.3984s-0.62891-1.3984-1.3984-1.3984-1.3984 0.62891-1.3984 1.3984 0.62891 1.3984 1.3984 1.3984zm0-2.3125c0.5 0 0.91016 0.41016 0.91016 0.91016s-0.41016 0.91016-0.91016 0.91016-0.91016-0.41016-0.91016-0.91016 0.41016-0.91016 0.91016-0.91016z"/>
  <path d="m79.75 70.961c0.76953 0 1.3984-0.62891 1.3984-1.3984s-0.62891-1.3984-1.3984-1.3984-1.3984 0.62891-1.3984 1.3984 0.62891 1.3984 1.3984 1.3984zm0-2.3125c0.5 0 0.91016 0.41016 0.91016 0.91016s-0.41016 0.91016-0.91016 0.91016-0.91016-0.41016-0.91016-0.91016 0.41016-0.91016 0.91016-0.91016z"/>
  <path d="m83.238 70.961c0.76953 0 1.3984-0.62891 1.3984-1.3984s-0.62891-1.3984-1.3984-1.3984-1.3984 0.62891-1.3984 1.3984 0.62891 1.3984 1.3984 1.3984zm0-2.3125c0.5 0 0.91016 0.41016 0.91016 0.91016s-0.41016 0.91016-0.91016 0.91016-0.91016-0.41016-0.91016-0.91016 0.41016-0.91016 0.91016-0.91016z"/>
  <path d="m86.738 70.961c0.76953 0 1.3984-0.62891 1.3984-1.3984s-0.62891-1.3984-1.3984-1.3984-1.3984 0.62891-1.3984 1.3984 0.62891 1.3984 1.3984 1.3984zm0-2.3125c0.5 0 0.91016 0.41016 0.91016 0.91016s-0.41016 0.91016-0.91016 0.91016-0.91016-0.41016-0.91016-0.91016 0.41016-0.91016 0.91016-0.91016z"/>
  <path d="m90.23 70.961c0.76953 0 1.3984-0.62891 1.3984-1.3984s-0.62891-1.3984-1.3984-1.3984-1.3984 0.62891-1.3984 1.3984 0.62891 1.3984 1.3984 1.3984zm0-2.3125c0.5 0 0.91016 0.41016 0.91016 0.91016s-0.41016 0.91016-0.91016 0.91016-0.91016-0.41016-0.91016-0.91016 0.41016-0.91016 0.91016-0.91016z"/>
  <path d="m51.82 74.629c0.76953 0 1.3984-0.62891 1.3984-1.3984s-0.62891-1.3984-1.3984-1.3984c-0.76953 0-1.3984 0.62891-1.3984 1.3984s0.62891 1.3984 1.3984 1.3984zm0-2.3203c0.5 0 0.91016 0.41016 0.91016 0.91016s-0.41016 0.91016-0.91016 0.91016-0.91016-0.41016-0.91016-0.91016 0.41016-0.91016 0.91016-0.91016z"/>
  <path d="m55.309 74.629c0.76953 0 1.3984-0.62891 1.3984-1.3984s-0.62891-1.3984-1.3984-1.3984c-0.76953 0-1.3984 0.62891-1.3984 1.3984s0.62891 1.3984 1.3984 1.3984zm0-2.3203c0.5 0 0.91016 0.41016 0.91016 0.91016s-0.41016 0.91016-0.91016 0.91016-0.91016-0.41016-0.91016-0.91016 0.41016-0.91016 0.91016-0.91016z"/>
  <path d="m58.809 74.629c0.76953 0 1.3984-0.62891 1.3984-1.3984s-0.62891-1.3984-1.3984-1.3984c-0.76953 0-1.3984 0.62891-1.3984 1.3984s0.62891 1.3984 1.3984 1.3984zm0-2.3203c0.5 0 0.91016 0.41016 0.91016 0.91016s-0.41016 0.91016-0.91016 0.91016-0.91016-0.41016-0.91016-0.91016 0.41016-0.91016 0.91016-0.91016z"/>
  <path d="m62.301 74.629c0.76953 0 1.3984-0.62891 1.3984-1.3984s-0.62891-1.3984-1.3984-1.3984-1.3984 0.62891-1.3984 1.3984 0.62891 1.3984 1.3984 1.3984zm0-2.3203c0.5 0 0.91016 0.41016 0.91016 0.91016s-0.41016 0.91016-0.91016 0.91016-0.91016-0.41016-0.91016-0.91016 0.41016-0.91016 0.91016-0.91016z"/>
  <path d="m65.789 74.629c0.76953 0 1.3984-0.62891 1.3984-1.3984s-0.62891-1.3984-1.3984-1.3984c-0.76953 0-1.3984 0.62891-1.3984 1.3984s0.62891 1.3984 1.3984 1.3984zm0-2.3203c0.5 0 0.91016 0.41016 0.91016 0.91016s-0.41016 0.91016-0.91016 0.91016-0.91016-0.41016-0.91016-0.91016 0.41016-0.91016 0.91016-0.91016z"/>
  <path d="m69.281 74.629c0.76953 0 1.3984-0.62891 1.3984-1.3984s-0.62891-1.3984-1.3984-1.3984-1.3984 0.62891-1.3984 1.3984 0.62891 1.3984 1.3984 1.3984zm0-2.3203c0.5 0 0.91016 0.41016 0.91016 0.91016s-0.41016 0.91016-0.91016 0.91016-0.91016-0.41016-0.91016-0.91016 0.41016-0.91016 0.91016-0.91016z"/>
  <path d="m72.77 74.629c0.76953 0 1.3984-0.62891 1.3984-1.3984s-0.62891-1.3984-1.3984-1.3984-1.3984 0.62891-1.3984 1.3984 0.62891 1.3984 1.3984 1.3984zm0-2.3203c0.5 0 0.91016 0.41016 0.91016 0.91016s-0.41016 0.91016-0.91016 0.91016-0.91016-0.41016-0.91016-0.91016 0.41016-0.91016 0.91016-0.91016z"/>
  <path d="m76.262 74.629c0.76953 0 1.3984-0.62891 1.3984-1.3984s-0.62891-1.3984-1.3984-1.3984-1.3984 0.62891-1.3984 1.3984 0.62891 1.3984 1.3984 1.3984zm0-2.3203c0.5 0 0.91016 0.41016 0.91016 0.91016s-0.41016 0.91016-0.91016 0.91016-0.91016-0.41016-0.91016-0.91016 0.41016-0.91016 0.91016-0.91016z"/>
  <path d="m79.75 74.629c0.76953 0 1.3984-0.62891 1.3984-1.3984s-0.62891-1.3984-1.3984-1.3984-1.3984 0.62891-1.3984 1.3984 0.62891 1.3984 1.3984 1.3984zm0-2.3203c0.5 0 0.91016 0.41016 0.91016 0.91016s-0.41016 0.91016-0.91016 0.91016-0.91016-0.41016-0.91016-0.91016 0.41016-0.91016 0.91016-0.91016z"/>
  <path d="m83.238 74.629c0.76953 0 1.3984-0.62891 1.3984-1.3984s-0.62891-1.3984-1.3984-1.3984-1.3984 0.62891-1.3984 1.3984 0.62891 1.3984 1.3984 1.3984zm0-2.3203c0.5 0 0.91016 0.41016 0.91016 0.91016s-0.41016 0.91016-0.91016 0.91016-0.91016-0.41016-0.91016-0.91016 0.41016-0.91016 0.91016-0.91016z"/>
  <path d="m86.738 74.629c0.76953 0 1.3984-0.62891 1.3984-1.3984s-0.62891-1.3984-1.3984-1.3984-1.3984 0.62891-1.3984 1.3984 0.62891 1.3984 1.3984 1.3984zm0-2.3203c0.5 0 0.91016 0.41016 0.91016 0.91016s-0.41016 0.91016-0.91016 0.91016-0.91016-0.41016-0.91016-0.91016 0.41016-0.91016 0.91016-0.91016z"/>
  <path d="m90.23 74.629c0.76953 0 1.3984-0.62891 1.3984-1.3984s-0.62891-1.3984-1.3984-1.3984-1.3984 0.62891-1.3984 1.3984 0.62891 1.3984 1.3984 1.3984zm0-2.3203c0.5 0 0.91016 0.41016 0.91016 0.91016s-0.41016 0.91016-0.91016 0.91016-0.91016-0.41016-0.91016-0.91016 0.41016-0.91016 0.91016-0.91016z"/>
  <path d="m51.82 78.289c0.76953 0 1.3984-0.62891 1.3984-1.3984s-0.62891-1.3984-1.3984-1.3984c-0.76953 0-1.3984 0.62891-1.3984 1.3984s0.62891 1.3984 1.3984 1.3984zm0-2.3086c0.5 0 0.91016 0.41016 0.91016 0.91016s-0.41016 0.91016-0.91016 0.91016-0.91016-0.41016-0.91016-0.91016 0.41016-0.91016 0.91016-0.91016z"/>
  <path d="m55.309 78.289c0.76953 0 1.3984-0.62891 1.3984-1.3984s-0.62891-1.3984-1.3984-1.3984c-0.76953 0-1.3984 0.62891-1.3984 1.3984s0.62891 1.3984 1.3984 1.3984zm0-2.3086c0.5 0 0.91016 0.41016 0.91016 0.91016s-0.41016 0.91016-0.91016 0.91016-0.91016-0.41016-0.91016-0.91016 0.41016-0.91016 0.91016-0.91016z"/>
  <path d="m58.809 78.289c0.76953 0 1.3984-0.62891 1.3984-1.3984s-0.62891-1.3984-1.3984-1.3984c-0.76953 0-1.3984 0.62891-1.3984 1.3984s0.62891 1.3984 1.3984 1.3984zm0-2.3086c0.5 0 0.91016 0.41016 0.91016 0.91016s-0.41016 0.91016-0.91016 0.91016-0.91016-0.41016-0.91016-0.91016 0.41016-0.91016 0.91016-0.91016z"/>
  <path d="m62.301 78.289c0.76953 0 1.3984-0.62891 1.3984-1.3984s-0.62891-1.3984-1.3984-1.3984-1.3984 0.62891-1.3984 1.3984 0.62891 1.3984 1.3984 1.3984zm0-2.3086c0.5 0 0.91016 0.41016 0.91016 0.91016s-0.41016 0.91016-0.91016 0.91016-0.91016-0.41016-0.91016-0.91016 0.41016-0.91016 0.91016-0.91016z"/>
  <path d="m65.789 78.289c0.76953 0 1.3984-0.62891 1.3984-1.3984s-0.62891-1.3984-1.3984-1.3984c-0.76953 0-1.3984 0.62891-1.3984 1.3984s0.62891 1.3984 1.3984 1.3984zm0-2.3086c0.5 0 0.91016 0.41016 0.91016 0.91016s-0.41016 0.91016-0.91016 0.91016-0.91016-0.41016-0.91016-0.91016 0.41016-0.91016 0.91016-0.91016z"/>
  <path d="m69.281 78.289c0.76953 0 1.3984-0.62891 1.3984-1.3984s-0.62891-1.3984-1.3984-1.3984-1.3984 0.62891-1.3984 1.3984 0.62891 1.3984 1.3984 1.3984zm0-2.3086c0.5 0 0.91016 0.41016 0.91016 0.91016s-0.41016 0.91016-0.91016 0.91016-0.91016-0.41016-0.91016-0.91016 0.41016-0.91016 0.91016-0.91016z"/>
  <path d="m72.77 78.289c0.76953 0 1.3984-0.62891 1.3984-1.3984s-0.62891-1.3984-1.3984-1.3984-1.3984 0.62891-1.3984 1.3984 0.62891 1.3984 1.3984 1.3984zm0-2.3086c0.5 0 0.91016 0.41016 0.91016 0.91016s-0.41016 0.91016-0.91016 0.91016-0.91016-0.41016-0.91016-0.91016 0.41016-0.91016 0.91016-0.91016z"/>
  <path d="m76.262 78.289c0.76953 0 1.3984-0.62891 1.3984-1.3984s-0.62891-1.3984-1.3984-1.3984-1.3984 0.62891-1.3984 1.3984 0.62891 1.3984 1.3984 1.3984zm0-2.3086c0.5 0 0.91016 0.41016 0.91016 0.91016s-0.41016 0.91016-0.91016 0.91016-0.91016-0.41016-0.91016-0.91016 0.41016-0.91016 0.91016-0.91016z"/>
  <path d="m79.75 78.289c0.76953 0 1.3984-0.62891 1.3984-1.3984s-0.62891-1.3984-1.3984-1.3984-1.3984 0.62891-1.3984 1.3984 0.62891 1.3984 1.3984 1.3984zm0-2.3086c0.5 0 0.91016 0.41016 0.91016 0.91016s-0.41016 0.91016-0.91016 0.91016-0.91016-0.41016-0.91016-0.91016 0.41016-0.91016 0.91016-0.91016z"/>
  <path d="m83.238 78.289c0.76953 0 1.3984-0.62891 1.3984-1.3984s-0.62891-1.3984-1.3984-1.3984-1.3984 0.62891-1.3984 1.3984 0.62891 1.3984 1.3984 1.3984zm0-2.3086c0.5 0 0.91016 0.41016 0.91016 0.91016s-0.41016 0.91016-0.91016 0.91016-0.91016-0.41016-0.91016-0.91016 0.41016-0.91016 0.91016-0.91016z"/>
  <path d="m86.738 78.289c0.76953 0 1.3984-0.62891 1.3984-1.3984s-0.62891-1.3984-1.3984-1.3984-1.3984 0.62891-1.3984 1.3984 0.62891 1.3984 1.3984 1.3984zm0-2.3086c0.5 0 0.91016 0.41016 0.91016 0.91016s-0.41016 0.91016-0.91016 0.91016-0.91016-0.41016-0.91016-0.91016 0.41016-0.91016 0.91016-0.91016z"/>
  <path d="m90.23 78.289c0.76953 0 1.3984-0.62891 1.3984-1.3984s-0.62891-1.3984-1.3984-1.3984-1.3984 0.62891-1.3984 1.3984 0.62891 1.3984 1.3984 1.3984zm0-2.3086c0.5 0 0.91016 0.41016 0.91016 0.91016s-0.41016 0.91016-0.91016 0.91016-0.91016-0.41016-0.91016-0.91016 0.41016-0.91016 0.91016-0.91016z"/>
  <path d="m51.82 81.961c0.76953 0 1.3984-0.62891 1.3984-1.3984s-0.62891-1.3984-1.3984-1.3984c-0.76953 0-1.3984 0.62891-1.3984 1.3984s0.62891 1.3984 1.3984 1.3984zm0-2.3125c0.5 0 0.91016 0.41016 0.91016 0.91016s-0.41016 0.91016-0.91016 0.91016-0.91016-0.41016-0.91016-0.91016 0.41016-0.91016 0.91016-0.91016z"/>
  <path d="m55.309 81.961c0.76953 0 1.3984-0.62891 1.3984-1.3984s-0.62891-1.3984-1.3984-1.3984c-0.76953 0-1.3984 0.62891-1.3984 1.3984s0.62891 1.3984 1.3984 1.3984zm0-2.3125c0.5 0 0.91016 0.41016 0.91016 0.91016s-0.41016 0.91016-0.91016 0.91016-0.91016-0.41016-0.91016-0.91016 0.41016-0.91016 0.91016-0.91016z"/>
  <path d="m58.809 81.961c0.76953 0 1.3984-0.62891 1.3984-1.3984s-0.62891-1.3984-1.3984-1.3984c-0.76953 0-1.3984 0.62891-1.3984 1.3984s0.62891 1.3984 1.3984 1.3984zm0-2.3125c0.5 0 0.91016 0.41016 0.91016 0.91016s-0.41016 0.91016-0.91016 0.91016-0.91016-0.41016-0.91016-0.91016 0.41016-0.91016 0.91016-0.91016z"/>
  <path d="m62.301 81.961c0.76953 0 1.3984-0.62891 1.3984-1.3984s-0.62891-1.3984-1.3984-1.3984-1.3984 0.62891-1.3984 1.3984 0.62891 1.3984 1.3984 1.3984zm0-2.3125c0.5 0 0.91016 0.41016 0.91016 0.91016s-0.41016 0.91016-0.91016 0.91016-0.91016-0.41016-0.91016-0.91016 0.41016-0.91016 0.91016-0.91016z"/>
  <path d="m65.789 81.961c0.76953 0 1.3984-0.62891 1.3984-1.3984s-0.62891-1.3984-1.3984-1.3984c-0.76953 0-1.3984 0.62891-1.3984 1.3984s0.62891 1.3984 1.3984 1.3984zm0-2.3125c0.5 0 0.91016 0.41016 0.91016 0.91016s-0.41016 0.91016-0.91016 0.91016-0.91016-0.41016-0.91016-0.91016 0.41016-0.91016 0.91016-0.91016z"/>
  <path d="m69.281 81.961c0.76953 0 1.3984-0.62891 1.3984-1.3984s-0.62891-1.3984-1.3984-1.3984-1.3984 0.62891-1.3984 1.3984 0.62891 1.3984 1.3984 1.3984zm0-2.3125c0.5 0 0.91016 0.41016 0.91016 0.91016s-0.41016 0.91016-0.91016 0.91016-0.91016-0.41016-0.91016-0.91016 0.41016-0.91016 0.91016-0.91016z"/>
  <path d="m72.77 81.961c0.76953 0 1.3984-0.62891 1.3984-1.3984s-0.62891-1.3984-1.3984-1.3984-1.3984 0.62891-1.3984 1.3984 0.62891 1.3984 1.3984 1.3984zm0-2.3125c0.5 0 0.91016 0.41016 0.91016 0.91016s-0.41016 0.91016-0.91016 0.91016-0.91016-0.41016-0.91016-0.91016 0.41016-0.91016 0.91016-0.91016z"/>
  <path d="m76.262 81.961c0.76953 0 1.3984-0.62891 1.3984-1.3984s-0.62891-1.3984-1.3984-1.3984-1.3984 0.62891-1.3984 1.3984 0.62891 1.3984 1.3984 1.3984zm0-2.3125c0.5 0 0.91016 0.41016 0.91016 0.91016s-0.41016 0.91016-0.91016 0.91016-0.91016-0.41016-0.91016-0.91016 0.41016-0.91016 0.91016-0.91016z"/>
  <path d="m79.75 81.961c0.76953 0 1.3984-0.62891 1.3984-1.3984s-0.62891-1.3984-1.3984-1.3984-1.3984 0.62891-1.3984 1.3984 0.62891 1.3984 1.3984 1.3984zm0-2.3125c0.5 0 0.91016 0.41016 0.91016 0.91016s-0.41016 0.91016-0.91016 0.91016-0.91016-0.41016-0.91016-0.91016 0.41016-0.91016 0.91016-0.91016z"/>
  <path d="m83.238 81.961c0.76953 0 1.3984-0.62891 1.3984-1.3984s-0.62891-1.3984-1.3984-1.3984-1.3984 0.62891-1.3984 1.3984 0.62891 1.3984 1.3984 1.3984zm0-2.3125c0.5 0 0.91016 0.41016 0.91016 0.91016s-0.41016 0.91016-0.91016 0.91016-0.91016-0.41016-0.91016-0.91016 0.41016-0.91016 0.91016-0.91016z"/>
  <path d="m86.738 81.961c0.76953 0 1.3984-0.62891 1.3984-1.3984s-0.62891-1.3984-1.3984-1.3984-1.3984 0.62891-1.3984 1.3984 0.62891 1.3984 1.3984 1.3984zm0-2.3125c0.5 0 0.91016 0.41016 0.91016 0.91016s-0.41016 0.91016-0.91016 0.91016-0.91016-0.41016-0.91016-0.91016 0.41016-0.91016 0.91016-0.91016z"/>
  <path d="m90.23 81.961c0.76953 0 1.3984-0.62891 1.3984-1.3984s-0.62891-1.3984-1.3984-1.3984-1.3984 0.62891-1.3984 1.3984 0.62891 1.3984 1.3984 1.3984zm0-2.3125c0.5 0 0.91016 0.41016 0.91016 0.91016s-0.41016 0.91016-0.91016 0.91016-0.91016-0.41016-0.91016-0.91016 0.41016-0.91016 0.91016-0.91016z"/>
  <path d="m51.82 85.629c0.76953 0 1.3984-0.62891 1.3984-1.3984s-0.62891-1.3984-1.3984-1.3984c-0.76953 0-1.3984 0.62891-1.3984 1.3984s0.62891 1.3984 1.3984 1.3984zm0-2.3086c0.5 0 0.91016 0.41016 0.91016 0.91016s-0.41016 0.91016-0.91016 0.91016-0.91016-0.41016-0.91016-0.91016 0.41016-0.91016 0.91016-0.91016z"/>
  <path d="m55.309 85.629c0.76953 0 1.3984-0.62891 1.3984-1.3984s-0.62891-1.3984-1.3984-1.3984c-0.76953 0-1.3984 0.62891-1.3984 1.3984s0.62891 1.3984 1.3984 1.3984zm0-2.3086c0.5 0 0.91016 0.41016 0.91016 0.91016s-0.41016 0.91016-0.91016 0.91016-0.91016-0.41016-0.91016-0.91016 0.41016-0.91016 0.91016-0.91016z"/>
  <path d="m58.809 85.629c0.76953 0 1.3984-0.62891 1.3984-1.3984s-0.62891-1.3984-1.3984-1.3984c-0.76953 0-1.3984 0.62891-1.3984 1.3984s0.62891 1.3984 1.3984 1.3984zm0-2.3086c0.5 0 0.91016 0.41016 0.91016 0.91016s-0.41016 0.91016-0.91016 0.91016-0.91016-0.41016-0.91016-0.91016 0.41016-0.91016 0.91016-0.91016z"/>
  <path d="m62.301 85.629c0.76953 0 1.3984-0.62891 1.3984-1.3984s-0.62891-1.3984-1.3984-1.3984-1.3984 0.62891-1.3984 1.3984 0.62891 1.3984 1.3984 1.3984zm0-2.3086c0.5 0 0.91016 0.41016 0.91016 0.91016s-0.41016 0.91016-0.91016 0.91016-0.91016-0.41016-0.91016-0.91016 0.41016-0.91016 0.91016-0.91016z"/>
  <path d="m65.789 85.629c0.76953 0 1.3984-0.62891 1.3984-1.3984s-0.62891-1.3984-1.3984-1.3984c-0.76953 0-1.3984 0.62891-1.3984 1.3984s0.62891 1.3984 1.3984 1.3984zm0-2.3086c0.5 0 0.91016 0.41016 0.91016 0.91016s-0.41016 0.91016-0.91016 0.91016-0.91016-0.41016-0.91016-0.91016 0.41016-0.91016 0.91016-0.91016z"/>
  <path d="m69.281 85.629c0.76953 0 1.3984-0.62891 1.3984-1.3984s-0.62891-1.3984-1.3984-1.3984-1.3984 0.62891-1.3984 1.3984 0.62891 1.3984 1.3984 1.3984zm0-2.3086c0.5 0 0.91016 0.41016 0.91016 0.91016s-0.41016 0.91016-0.91016 0.91016-0.91016-0.41016-0.91016-0.91016 0.41016-0.91016 0.91016-0.91016z"/>
  <path d="m72.77 85.629c0.76953 0 1.3984-0.62891 1.3984-1.3984s-0.62891-1.3984-1.3984-1.3984-1.3984 0.62891-1.3984 1.3984 0.62891 1.3984 1.3984 1.3984zm0-2.3086c0.5 0 0.91016 0.41016 0.91016 0.91016s-0.41016 0.91016-0.91016 0.91016-0.91016-0.41016-0.91016-0.91016 0.41016-0.91016 0.91016-0.91016z"/>
  <path d="m76.262 85.629c0.76953 0 1.3984-0.62891 1.3984-1.3984s-0.62891-1.3984-1.3984-1.3984-1.3984 0.62891-1.3984 1.3984 0.62891 1.3984 1.3984 1.3984zm0-2.3086c0.5 0 0.91016 0.41016 0.91016 0.91016s-0.41016 0.91016-0.91016 0.91016-0.91016-0.41016-0.91016-0.91016 0.41016-0.91016 0.91016-0.91016z"/>
  <path d="m79.75 85.629c0.76953 0 1.3984-0.62891 1.3984-1.3984s-0.62891-1.3984-1.3984-1.3984-1.3984 0.62891-1.3984 1.3984 0.62891 1.3984 1.3984 1.3984zm0-2.3086c0.5 0 0.91016 0.41016 0.91016 0.91016s-0.41016 0.91016-0.91016 0.91016-0.91016-0.41016-0.91016-0.91016 0.41016-0.91016 0.91016-0.91016z"/>
  <path d="m83.238 85.629c0.76953 0 1.3984-0.62891 1.3984-1.3984s-0.62891-1.3984-1.3984-1.3984-1.3984 0.62891-1.3984 1.3984 0.62891 1.3984 1.3984 1.3984zm0-2.3086c0.5 0 0.91016 0.41016 0.91016 0.91016s-0.41016 0.91016-0.91016 0.91016-0.91016-0.41016-0.91016-0.91016 0.41016-0.91016 0.91016-0.91016z"/>
  <path d="m86.738 85.629c0.76953 0 1.3984-0.62891 1.3984-1.3984s-0.62891-1.3984-1.3984-1.3984-1.3984 0.62891-1.3984 1.3984 0.62891 1.3984 1.3984 1.3984zm0-2.3086c0.5 0 0.91016 0.41016 0.91016 0.91016s-0.41016 0.91016-0.91016 0.91016-0.91016-0.41016-0.91016-0.91016 0.41016-0.91016 0.91016-0.91016z"/>
  <path d="m90.23 85.629c0.76953 0 1.3984-0.62891 1.3984-1.3984s-0.62891-1.3984-1.3984-1.3984-1.3984 0.62891-1.3984 1.3984 0.62891 1.3984 1.3984 1.3984zm0-2.3086c0.5 0 0.91016 0.41016 0.91016 0.91016s-0.41016 0.91016-0.91016 0.91016-0.91016-0.41016-0.91016-0.91016 0.41016-0.91016 0.91016-0.91016z"/>
  <path d="m51.82 89.301c0.76953 0 1.3984-0.62891 1.3984-1.3984 0-0.76953-0.62891-1.3984-1.3984-1.3984-0.76953 0-1.3984 0.62891-1.3984 1.3984 0 0.76953 0.62891 1.3984 1.3984 1.3984zm0-2.3125c0.5 0 0.91016 0.41016 0.91016 0.91016s-0.41016 0.91016-0.91016 0.91016-0.91016-0.41016-0.91016-0.91016 0.41016-0.91016 0.91016-0.91016z"/>
  <path d="m55.309 89.301c0.76953 0 1.3984-0.62891 1.3984-1.3984 0-0.76953-0.62891-1.3984-1.3984-1.3984-0.76953 0-1.3984 0.62891-1.3984 1.3984 0 0.76953 0.62891 1.3984 1.3984 1.3984zm0-2.3125c0.5 0 0.91016 0.41016 0.91016 0.91016s-0.41016 0.91016-0.91016 0.91016-0.91016-0.41016-0.91016-0.91016 0.41016-0.91016 0.91016-0.91016z"/>
  <path d="m58.809 89.301c0.76953 0 1.3984-0.62891 1.3984-1.3984 0-0.76953-0.62891-1.3984-1.3984-1.3984-0.76953 0-1.3984 0.62891-1.3984 1.3984 0 0.76953 0.62891 1.3984 1.3984 1.3984zm0-2.3125c0.5 0 0.91016 0.41016 0.91016 0.91016s-0.41016 0.91016-0.91016 0.91016-0.91016-0.41016-0.91016-0.91016 0.41016-0.91016 0.91016-0.91016z"/>
  <path d="m62.301 89.301c0.76953 0 1.3984-0.62891 1.3984-1.3984 0-0.76953-0.62891-1.3984-1.3984-1.3984s-1.3984 0.62891-1.3984 1.3984c0 0.76953 0.62891 1.3984 1.3984 1.3984zm0-2.3125c0.5 0 0.91016 0.41016 0.91016 0.91016s-0.41016 0.91016-0.91016 0.91016-0.91016-0.41016-0.91016-0.91016 0.41016-0.91016 0.91016-0.91016z"/>
  <path d="m65.789 89.301c0.76953 0 1.3984-0.62891 1.3984-1.3984 0-0.76953-0.62891-1.3984-1.3984-1.3984-0.76953 0-1.3984 0.62891-1.3984 1.3984 0 0.76953 0.62891 1.3984 1.3984 1.3984zm0-2.3125c0.5 0 0.91016 0.41016 0.91016 0.91016s-0.41016 0.91016-0.91016 0.91016-0.91016-0.41016-0.91016-0.91016 0.41016-0.91016 0.91016-0.91016z"/>
  <path d="m69.281 89.301c0.76953 0 1.3984-0.62891 1.3984-1.3984 0-0.76953-0.62891-1.3984-1.3984-1.3984s-1.3984 0.62891-1.3984 1.3984c0 0.76953 0.62891 1.3984 1.3984 1.3984zm0-2.3125c0.5 0 0.91016 0.41016 0.91016 0.91016s-0.41016 0.91016-0.91016 0.91016-0.91016-0.41016-0.91016-0.91016 0.41016-0.91016 0.91016-0.91016z"/>
  <path d="m72.77 89.301c0.76953 0 1.3984-0.62891 1.3984-1.3984 0-0.76953-0.62891-1.3984-1.3984-1.3984s-1.3984 0.62891-1.3984 1.3984c0 0.76953 0.62891 1.3984 1.3984 1.3984zm0-2.3125c0.5 0 0.91016 0.41016 0.91016 0.91016s-0.41016 0.91016-0.91016 0.91016-0.91016-0.41016-0.91016-0.91016 0.41016-0.91016 0.91016-0.91016z"/>
  <path d="m76.262 89.301c0.76953 0 1.3984-0.62891 1.3984-1.3984 0-0.76953-0.62891-1.3984-1.3984-1.3984s-1.3984 0.62891-1.3984 1.3984c0 0.76953 0.62891 1.3984 1.3984 1.3984zm0-2.3125c0.5 0 0.91016 0.41016 0.91016 0.91016s-0.41016 0.91016-0.91016 0.91016-0.91016-0.41016-0.91016-0.91016 0.41016-0.91016 0.91016-0.91016z"/>
  <path d="m79.75 89.301c0.76953 0 1.3984-0.62891 1.3984-1.3984 0-0.76953-0.62891-1.3984-1.3984-1.3984s-1.3984 0.62891-1.3984 1.3984c0 0.76953 0.62891 1.3984 1.3984 1.3984zm0-2.3125c0.5 0 0.91016 0.41016 0.91016 0.91016s-0.41016 0.91016-0.91016 0.91016-0.91016-0.41016-0.91016-0.91016 0.41016-0.91016 0.91016-0.91016z"/>
  <path d="m83.238 89.301c0.76953 0 1.3984-0.62891 1.3984-1.3984 0-0.76953-0.62891-1.3984-1.3984-1.3984s-1.3984 0.62891-1.3984 1.3984c0 0.76953 0.62891 1.3984 1.3984 1.3984zm0-2.3125c0.5 0 0.91016 0.41016 0.91016 0.91016s-0.41016 0.91016-0.91016 0.91016-0.91016-0.41016-0.91016-0.91016 0.41016-0.91016 0.91016-0.91016z"/>
  <path d="m86.738 89.301c0.76953 0 1.3984-0.62891 1.3984-1.3984 0-0.76953-0.62891-1.3984-1.3984-1.3984s-1.3984 0.62891-1.3984 1.3984c0 0.76953 0.62891 1.3984 1.3984 1.3984zm0-2.3125c0.5 0 0.91016 0.41016 0.91016 0.91016s-0.41016 0.91016-0.91016 0.91016-0.91016-0.41016-0.91016-0.91016 0.41016-0.91016 0.91016-0.91016z"/>
  <path d="m90.23 89.301c0.76953 0 1.3984-0.62891 1.3984-1.3984 0-0.76953-0.62891-1.3984-1.3984-1.3984s-1.3984 0.62891-1.3984 1.3984c0 0.76953 0.62891 1.3984 1.3984 1.3984zm0-2.3125c0.5 0 0.91016 0.41016 0.91016 0.91016s-0.41016 0.91016-0.91016 0.91016-0.91016-0.41016-0.91016-0.91016 0.41016-0.91016 0.91016-0.91016z"/>
  <path d="m51.82 92.969c0.76953 0 1.3984-0.62891 1.3984-1.3984 0-0.76953-0.62891-1.3984-1.3984-1.3984-0.76953 0-1.3984 0.62891-1.3984 1.3984 0 0.76953 0.62891 1.3984 1.3984 1.3984zm0-2.3203c0.5 0 0.91016 0.41016 0.91016 0.91016s-0.41016 0.91016-0.91016 0.91016-0.91016-0.41016-0.91016-0.91016 0.41016-0.91016 0.91016-0.91016z"/>
  <path d="m55.309 92.969c0.76953 0 1.3984-0.62891 1.3984-1.3984 0-0.76953-0.62891-1.3984-1.3984-1.3984-0.76953 0-1.3984 0.62891-1.3984 1.3984 0 0.76953 0.62891 1.3984 1.3984 1.3984zm0-2.3203c0.5 0 0.91016 0.41016 0.91016 0.91016s-0.41016 0.91016-0.91016 0.91016-0.91016-0.41016-0.91016-0.91016 0.41016-0.91016 0.91016-0.91016z"/>
  <path d="m58.809 92.969c0.76953 0 1.3984-0.62891 1.3984-1.3984 0-0.76953-0.62891-1.3984-1.3984-1.3984-0.76953 0-1.3984 0.62891-1.3984 1.3984 0 0.76953 0.62891 1.3984 1.3984 1.3984zm0-2.3203c0.5 0 0.91016 0.41016 0.91016 0.91016s-0.41016 0.91016-0.91016 0.91016-0.91016-0.41016-0.91016-0.91016 0.41016-0.91016 0.91016-0.91016z"/>
  <path d="m62.301 92.969c0.76953 0 1.3984-0.62891 1.3984-1.3984 0-0.76953-0.62891-1.3984-1.3984-1.3984s-1.3984 0.62891-1.3984 1.3984c0 0.76953 0.62891 1.3984 1.3984 1.3984zm0-2.3203c0.5 0 0.91016 0.41016 0.91016 0.91016s-0.41016 0.91016-0.91016 0.91016-0.91016-0.41016-0.91016-0.91016 0.41016-0.91016 0.91016-0.91016z"/>
  <path d="m65.789 92.969c0.76953 0 1.3984-0.62891 1.3984-1.3984 0-0.76953-0.62891-1.3984-1.3984-1.3984-0.76953 0-1.3984 0.62891-1.3984 1.3984 0 0.76953 0.62891 1.3984 1.3984 1.3984zm0-2.3203c0.5 0 0.91016 0.41016 0.91016 0.91016s-0.41016 0.91016-0.91016 0.91016-0.91016-0.41016-0.91016-0.91016 0.41016-0.91016 0.91016-0.91016z"/>
  <path d="m69.281 92.969c0.76953 0 1.3984-0.62891 1.3984-1.3984 0-0.76953-0.62891-1.3984-1.3984-1.3984s-1.3984 0.62891-1.3984 1.3984c0 0.76953 0.62891 1.3984 1.3984 1.3984zm0-2.3203c0.5 0 0.91016 0.41016 0.91016 0.91016s-0.41016 0.91016-0.91016 0.91016-0.91016-0.41016-0.91016-0.91016 0.41016-0.91016 0.91016-0.91016z"/>
  <path d="m72.77 92.969c0.76953 0 1.3984-0.62891 1.3984-1.3984 0-0.76953-0.62891-1.3984-1.3984-1.3984s-1.3984 0.62891-1.3984 1.3984c0 0.76953 0.62891 1.3984 1.3984 1.3984zm0-2.3203c0.5 0 0.91016 0.41016 0.91016 0.91016s-0.41016 0.91016-0.91016 0.91016-0.91016-0.41016-0.91016-0.91016 0.41016-0.91016 0.91016-0.91016z"/>
  <path d="m76.262 92.969c0.76953 0 1.3984-0.62891 1.3984-1.3984 0-0.76953-0.62891-1.3984-1.3984-1.3984s-1.3984 0.62891-1.3984 1.3984c0 0.76953 0.62891 1.3984 1.3984 1.3984zm0-2.3203c0.5 0 0.91016 0.41016 0.91016 0.91016s-0.41016 0.91016-0.91016 0.91016-0.91016-0.41016-0.91016-0.91016 0.41016-0.91016 0.91016-0.91016z"/>
  <path d="m79.75 92.969c0.76953 0 1.3984-0.62891 1.3984-1.3984 0-0.76953-0.62891-1.3984-1.3984-1.3984s-1.3984 0.62891-1.3984 1.3984c0 0.76953 0.62891 1.3984 1.3984 1.3984zm0-2.3203c0.5 0 0.91016 0.41016 0.91016 0.91016s-0.41016 0.91016-0.91016 0.91016-0.91016-0.41016-0.91016-0.91016 0.41016-0.91016 0.91016-0.91016z"/>
  <path d="m83.238 92.969c0.76953 0 1.3984-0.62891 1.3984-1.3984 0-0.76953-0.62891-1.3984-1.3984-1.3984s-1.3984 0.62891-1.3984 1.3984c0 0.76953 0.62891 1.3984 1.3984 1.3984zm0-2.3203c0.5 0 0.91016 0.41016 0.91016 0.91016s-0.41016 0.91016-0.91016 0.91016-0.91016-0.41016-0.91016-0.91016 0.41016-0.91016 0.91016-0.91016z"/>
  <path d="m86.738 92.969c0.76953 0 1.3984-0.62891 1.3984-1.3984 0-0.76953-0.62891-1.3984-1.3984-1.3984s-1.3984 0.62891-1.3984 1.3984c0 0.76953 0.62891 1.3984 1.3984 1.3984zm0-2.3203c0.5 0 0.91016 0.41016 0.91016 0.91016s-0.41016 0.91016-0.91016 0.91016-0.91016-0.41016-0.91016-0.91016 0.41016-0.91016 0.91016-0.91016z"/>
  <path d="m90.23 92.969c0.76953 0 1.3984-0.62891 1.3984-1.3984 0-0.76953-0.62891-1.3984-1.3984-1.3984s-1.3984 0.62891-1.3984 1.3984c0 0.76953 0.62891 1.3984 1.3984 1.3984zm0-2.3203c0.5 0 0.91016 0.41016 0.91016 0.91016s-0.41016 0.91016-0.91016 0.91016-0.91016-0.41016-0.91016-0.91016 0.41016-0.91016 0.91016-0.91016z"/>
  <path d="m78.77 18.988-3.2812-2.7695 0.62109-0.73828s2.3008-2.7305 2.3008-2.7305c0.35156 0.25 0.76172 0.37891 1.1797 0.37891h0.17969c0.53906-0.050781 1.0391-0.30078 1.3906-0.71875l0.57812-0.69141c0.73047-0.85938 0.62109-2.1602-0.23828-2.8789l-3.6719-3.1016c-0.85938-0.73047-2.1602-0.62109-2.8789 0.25l-0.57812 0.69141c-0.35156 0.42187-0.51953 0.94922-0.46875 1.4883 0.039062 0.48828 0.25 0.92969 0.60156 1.2812l-2.3008 2.7305-1.2891-1.0781c-0.48047-1.0703-1.1406-1.9805-1.8789-2.6094-2.5-2.1094-6.4492-0.19141-7.7695 1.3789-0.28906 0.35156-0.78125 0.92969-0.51172 1.6211 0.28125 0.69922 0.94922 0.78125 1.9805 0.89844 0.80859 0.089844 2.0508 0.23047 3.7891 0.64844 0.32812 0.078126 0.60937 0.26172 0.87109 0.55859l-2.3398 2.7812 0.64062 0.53906-23.391 27.73 0.78125 0.66016-2.8594 3.3906 0.16016 0.12891-0.37891 2.1016-14.102 16.711-0.12891 0.16016-0.21875 0.26172-16.422 21.012-2.8984 4.5781 1.6797 1.4102 4-3.6094 17.75-20.641 14.012-16.621 0.10937 0.10156 2.8203-0.21875 0.62109 0.51953 2.8594-3.3906 1.5508 1.3086 24.359-28.879-0.64844-0.55078 2.5117-2.9805s-0.69922 0.82813-0.69922 0.82813l3.0703 1.8789 1.6016-1.2383-2.0312-1.7109-1.0195-0.85938zm-65.488 67.871 12.879-16.469 0.75 0.62891zm62.559-78.938 0.57812-0.69141s0.058593-0.039063 0.089843-0.039063 0.050782 0 0.070313 0.03125l3.6719 3.1016s0.050781 0.10938 0.011719 0.16016l-0.57812 0.69141s-0.050782 0.039063-0.078125 0.039063c-0.03125 0-0.058594 0-0.078125-0.03125l-2.4883-2.1016-1.1797-0.98828s-0.039063-0.050781-0.039063-0.078125c0-0.03125 0-0.058594 0.03125-0.078125zm0.12109 2.7695 0.98047 0.82812-2.3008 2.7188-0.98047-0.82812zm-24.582 39.09-6.3711-5.3789 23.391-27.73-0.64063-0.53906 2.0117-2.3789-0.33984-0.58984c-0.62891-1.1016-1.4688-1.7812-2.4805-2.0195-1.5391-0.35938-2.6992-0.53125-3.5391-0.62891 1.1719-0.80859 3.1992-1.5508 4.3711-0.55859 0.57812 0.48828 1.1094 1.2695 1.4805 2.1992l0.60156 1.4883 0.44922-0.53125 3.0898 2.6094-4.0703 4.8203 3.9219 3.3086-21.871 25.93z"/>
  <path d="m54.559 34.078 2.9297 2.4805 10.5-12.441-2.9297-2.4805zm12.07-9.8477-9.25 10.969-1.4609-1.2305 9.25-10.969z"/>
 </g>
<text x="0.0" y="117.5" font-size="5.0" font-weight="bold" font-family="Arbeit Regular, Helvetica, Arial-Unicode, Arial, Sans-serif" fill="#000000"></text><text x="0.0" y="122.5" font-size="5.0" font-weight="bold" font-family="Arbeit Regular, Helvetica, Arial-Unicode, Arial, Sans-serif" fill="#000000"></text></svg>